<svg width="299.3427734375px" height="172.4px" xmlns="http://www.w3.org/2000/svg" viewBox="100.32861328125 -11.200000000000003 299.3427734375 172.4" style="background: rgba(0, 0, 0, 0);" preserveAspectRatio="xMidYMid"><defs><linearGradient id="editing-gradient-gradient" x1="0" x2="1" y1="0.5" y2="0.5" gradientUnits="objectBoundingBox"><stop offset="0" stop-color="#f0f"></stop><stop offset="1" stop-color="#0ff"></stop></linearGradient></defs><g><g transform="translate(152.88775157928467, 107.63999938964844)"><path d="M43.78 1.92L43.78 1.92L43.78 1.92Q31.49 1.92 30.34-15.55L30.34-15.55L13.82-15.55L13.82-15.55Q11.90-11.14 10.56-7.30L10.56-7.30L8.06 0L-5.38 0L24.86-63.36L45.50-63.36L49.54-16.70L49.54-16.70Q50.50-6.62 54.34-3.65L54.34-3.65L54.34-3.65Q51.55 1.92 43.78 1.92ZM22.08-34.75L16.80-22.56L30.05-22.56L28.90-47.23L28.90-49.82L22.08-34.75ZM68.06 0L57.02 0L74.40-63.36L94.46-63.36L98.88-27.17L116.74-63.36L133.54-63.36L135.26-15.94L135.26-15.94Q135.65-6.53 140.26-3.65L140.26-3.65L140.26-3.65Q139.20-1.73 136.13 0.10L136.13 0.10L136.13 0.10Q133.06 1.92 128.98 1.92L128.98 1.92L128.98 1.92Q124.90 1.92 122.50 0.77L122.50 0.77L122.50 0.77Q120.10-0.38 118.75-2.30L118.75-2.30L118.75-2.30Q116.35-5.76 116.35-12.38L116.35-12.38L116.35-42.05L97.44 0L85.54 0L78.82-43.10L68.06 0ZM188.06-50.88L188.06-50.88L188.06-50.88Q180.29-50.88 174.62-53.47L174.62-53.47L171.55-37.92L190.08-37.92L190.08-37.92Q190.08-32.83 187.54-29.62L187.54-29.62L187.54-29.62Q184.99-26.40 180.38-26.40L180.38-26.40L180.38-26.40Q175.39-26.40 170.78-28.22L170.78-28.22L170.78-28.22Q169.82-28.61 169.73-28.70L169.73-28.70L164.26 0L143.33 0L155.52-63.36L198.34-63.36L198.34-63.36Q198.34-57.50 195.60-54.19L195.60-54.19L195.60-54.19Q192.86-50.88 188.06-50.88Z" fill="url(#editing-gradient-gradient)"></path></g></g><style>text {
  font-size: 64px;
  font-family: Arial Black;
  dominant-baseline: central;
  text-anchor: middle;
}</style></svg>